<svg width="28" height="27" viewBox="0 0 28 27" fill="none" xmlns="http://www.w3.org/2000/svg">
<g clip-path="url(#clip0_794_165)">
<path d="M6.9049 12.4199C6.04232 12.2931 5.1738 12.2107 4.30277 12.1729C3.92084 12.1493 3.4174 12.3484 3.33021 13.3114C3.31394 13.5536 3.33731 13.7968 3.3994 14.0314C3.45725 14.2765 3.58768 14.4983 3.77364 14.668C3.9596 14.8377 4.19244 14.9474 4.44171 14.9826L8.1649 15.5069C8.18349 15.51 8.2023 15.5115 8.22115 15.5114C8.29387 15.5115 8.36538 15.4927 8.42873 15.457C8.49208 15.4213 8.54512 15.3698 8.5827 15.3075C8.62028 15.2453 8.64113 15.1743 8.64323 15.1017C8.64532 15.029 8.62859 14.957 8.59465 14.8926C7.37009 12.5633 7.05621 12.4666 6.9049 12.4199ZM4.55927 14.1473C4.47748 14.1348 4.40133 14.0981 4.34066 14.0418C4.27999 13.9855 4.2376 13.9124 4.21896 13.8318C4.17972 13.6873 4.16339 13.5375 4.17059 13.3879C4.17192 13.2599 4.20089 13.1336 4.25552 13.0178H4.26734C5.22921 13.078 6.3109 13.1652 6.60396 13.2169C6.92066 13.6407 7.20389 14.0885 7.45109 14.5563L4.55927 14.1473Z" fill="#222222"/>
<path d="M24.1966 12.1731C23.3256 12.2109 22.4571 12.2933 21.5945 12.4201C21.4432 12.4667 21.1288 12.5635 19.9025 14.8951C19.8686 14.9594 19.8518 15.0314 19.8539 15.1041C19.856 15.1768 19.8769 15.2477 19.9145 15.3099C19.952 15.3722 20.0051 15.4237 20.0684 15.4594C20.1318 15.4951 20.2033 15.5139 20.276 15.5138C20.2949 15.5139 20.3137 15.5124 20.3323 15.5093L24.0555 14.9851C24.3047 14.9498 24.5376 14.8401 24.7235 14.6704C24.9095 14.5007 25.0399 14.2789 25.0978 14.0339C25.1597 13.7992 25.183 13.556 25.167 13.3139C25.0815 12.3486 24.5752 12.1501 24.1966 12.1731ZM24.2805 13.8319C24.2618 13.9125 24.2194 13.9857 24.1588 14.042C24.0981 14.0982 24.0219 14.135 23.9401 14.1475L21.0483 14.5547C21.2957 14.0872 21.5787 13.6394 21.8949 13.2154C22.193 13.1631 23.2758 13.0759 24.2371 13.0163C24.2985 13.1306 24.33 13.2584 24.3288 13.3881C24.336 13.5377 24.3197 13.6874 24.2805 13.8319Z" fill="#222222"/>
<path d="M20.0898 12.8126C20.0473 12.7519 19.9896 12.7034 19.9225 12.672C19.8554 12.6406 19.7812 12.6274 19.7073 12.6337C19.6685 12.6371 15.7935 12.9712 14.2511 12.9712C12.7087 12.9712 8.83309 12.6337 8.79484 12.6337C8.72098 12.6272 8.6467 12.6403 8.57951 12.6717C8.51233 12.7031 8.45462 12.7516 8.41222 12.8125C8.36982 12.8733 8.34422 12.9443 8.33802 13.0182C8.33182 13.0921 8.34524 13.1663 8.37691 13.2333L9.48784 15.5908C9.52033 15.6593 9.57061 15.7178 9.63344 15.7603C9.69627 15.8027 9.76935 15.8275 9.84503 15.8321L14.2488 16.0841L18.6594 15.8321C18.7351 15.8276 18.8082 15.8029 18.8711 15.7604C18.9339 15.718 18.9842 15.6594 19.0166 15.5908L20.1275 13.2333C20.159 13.1661 20.172 13.0918 20.1654 13.0179C20.1588 12.944 20.1327 12.8731 20.0898 12.8126ZM18.3585 15.0063L14.25 15.2437L10.1437 15.0063L9.45128 13.5371C10.6657 13.6361 13.0732 13.8183 14.2517 13.8183C15.4301 13.8183 17.8382 13.6361 19.0532 13.5371L18.3585 15.0063Z" fill="#222222"/>
<path d="M26.5187 21.021C26.4068 21.021 26.2995 21.0655 26.2204 21.1446C26.1413 21.2237 26.0968 21.331 26.0968 21.4429V23.1945C26.0968 23.234 26.0811 23.272 26.0531 23.2999C26.0252 23.3279 25.9873 23.3436 25.9477 23.3436H23.7562C23.7167 23.3436 23.6788 23.3279 23.6508 23.2999C23.6229 23.272 23.6072 23.234 23.6072 23.1945V22.4723C23.6072 22.3604 23.5627 22.2531 23.4836 22.1739C23.4045 22.0948 23.2972 22.0504 23.1853 22.0504C23.0734 22.0504 22.9661 22.0948 22.887 22.1739C22.8079 22.2531 22.7634 22.3604 22.7634 22.4723V23.1945C22.7637 23.4577 22.8684 23.7101 23.0545 23.8962C23.2407 24.0823 23.493 24.187 23.7562 24.1873H25.95C26.2132 24.187 26.4656 24.0823 26.6517 23.8962C26.8378 23.7101 26.9425 23.4577 26.9428 23.1945V21.4429C26.9428 21.3873 26.9318 21.3322 26.9105 21.2809C26.8891 21.2296 26.8579 21.183 26.8184 21.1438C26.779 21.1046 26.7323 21.0735 26.6808 21.0525C26.6294 21.0314 26.5743 21.0207 26.5187 21.021Z" fill="#222222"/>
<path d="M5.28482 22.0501C5.17293 22.0501 5.06562 22.0945 4.98651 22.1736C4.90739 22.2527 4.86294 22.36 4.86294 22.4719V23.1942C4.86294 23.2336 4.84732 23.2714 4.81948 23.2994C4.79165 23.3273 4.75388 23.3431 4.71444 23.3432H2.52069C2.48126 23.3431 2.44349 23.3273 2.41565 23.2994C2.38782 23.2714 2.37219 23.2336 2.37219 23.1942V21.4431C2.37219 21.3312 2.32774 21.2239 2.24863 21.1448C2.16951 21.0657 2.06221 21.0212 1.95032 21.0212C1.83843 21.0212 1.73112 21.0657 1.65201 21.1448C1.57289 21.2239 1.52844 21.3312 1.52844 21.4431V23.1947C1.52859 23.4577 1.63301 23.7099 1.8188 23.896C2.00459 24.0821 2.2566 24.187 2.51957 24.1876H4.71332C4.97648 24.1873 5.22878 24.0825 5.41481 23.8964C5.60085 23.7103 5.70542 23.4579 5.70557 23.1947V22.4725C5.70572 22.3607 5.66149 22.2534 5.5826 22.1742C5.50371 22.095 5.39661 22.0504 5.28482 22.0501Z" fill="#222222"/>
<path d="M26.8663 7.79337L25.46 7.55037C25.2546 7.51246 25.0423 7.54568 24.8583 7.64456C24.6742 7.74343 24.5294 7.90206 24.4475 8.09431L24.3716 8.26306L23.3749 5.91181C23.1495 5.37269 22.7899 4.90024 22.3303 4.53947C21.8707 4.17869 21.3263 3.94161 20.7491 3.85081C18.5983 3.52429 16.4254 3.36519 14.25 3.37493C12.0745 3.36538 9.90164 3.52467 7.75085 3.85137C7.1737 3.94212 6.62939 4.17912 6.16976 4.53979C5.71014 4.90046 5.3505 5.37279 5.1251 5.91181L4.12498 8.26531L4.0541 8.09993C3.97292 7.90687 3.82842 7.74719 3.64439 7.6472C3.46036 7.54721 3.24776 7.51286 3.0416 7.54981L1.63535 7.79337C1.40714 7.83121 1.19978 7.94885 1.0502 8.12531C0.900625 8.30177 0.818552 8.52561 0.818604 8.75693V9.03312C0.818814 9.2558 0.894779 9.47178 1.03401 9.64557C1.17324 9.81935 1.36746 9.9406 1.58473 9.98937L2.9201 10.2909L2.32835 11.1937C1.81561 11.9738 1.5428 12.8871 1.54367 13.8206V18.6187C1.54367 20.4294 2.80479 21.5999 4.75779 21.5999H23.7422C25.6952 21.5999 26.9563 20.4299 26.9563 18.6187V13.8183C26.9572 12.8848 26.6843 11.9715 26.1716 11.1914L25.5799 10.2914L26.9107 9.99106C27.1286 9.94287 27.3236 9.82191 27.4636 9.6481C27.6036 9.47428 27.6802 9.25798 27.6808 9.03481V8.75862C27.6814 8.5273 27.5999 8.30327 27.4507 8.12648C27.3016 7.94969 27.0944 7.83163 26.8663 7.79337ZM1.76642 9.16362C1.73681 9.15696 1.71036 9.1404 1.69143 9.11667C1.67251 9.09294 1.66225 9.06347 1.66235 9.03312V8.75693C1.6619 8.72507 1.67307 8.69412 1.69377 8.6699C1.71448 8.64567 1.7433 8.62982 1.77485 8.62531L3.18729 8.38118C3.2071 8.37762 3.22754 8.38135 3.24481 8.39169C3.26208 8.40203 3.27502 8.41828 3.28123 8.43743L3.62604 9.21706L3.41567 9.53768L1.76642 9.16362ZM26.1125 17.3081H3.45673C3.34484 17.3081 3.23753 17.3525 3.15842 17.4316C3.0793 17.5107 3.03485 17.618 3.03485 17.7299C3.03485 17.8418 3.0793 17.9491 3.15842 18.0282C3.23753 18.1074 3.34484 18.1518 3.45673 18.1518H26.1125V18.6187C26.1125 19.9563 25.2266 20.7562 23.7422 20.7562H4.75779C3.27335 20.7562 2.38742 19.9569 2.38742 18.6187V13.8183C2.38683 13.0492 2.61151 12.2967 3.03373 11.6538L4.36348 9.62543H22.769C22.8809 9.62543 22.9882 9.58099 23.0674 9.50187C23.1465 9.42275 23.1909 9.31545 23.1909 9.20356C23.1909 9.09167 23.1465 8.98437 23.0674 8.90525C22.9882 8.82613 22.8809 8.78168 22.769 8.78168H4.82417L5.90192 6.24368C6.07154 5.83648 6.34271 5.47955 6.68954 5.20697C7.03637 4.93439 7.44728 4.75526 7.88304 4.68668C9.99 4.36574 12.1187 4.20927 14.25 4.21868C16.3812 4.20871 18.5099 4.36462 20.6169 4.685C21.0529 4.75373 21.4639 4.93311 21.8107 5.206C22.1576 5.47889 22.4286 5.83616 22.598 6.24368L23.831 9.15012C23.8406 9.17338 23.8525 9.19561 23.8665 9.2165L25.4662 11.6561C25.8884 12.2989 26.1131 13.0514 26.1125 13.8206V17.3081ZM26.837 9.03312C26.837 9.06408 26.8263 9.09408 26.8067 9.11806C26.7872 9.14204 26.7599 9.15853 26.7296 9.16475L25.086 9.536L24.8756 9.21537L25.2227 8.42787C25.2305 8.41082 25.2437 8.39682 25.2603 8.38807C25.2769 8.37932 25.2959 8.37631 25.3144 8.3795L26.724 8.62362C26.7555 8.62813 26.7844 8.64398 26.8051 8.66821C26.8258 8.69244 26.8369 8.72338 26.8365 8.75525L26.837 9.03312Z" fill="#222222"/>
</g>
<defs>
<clipPath id="clip0_794_165">
<rect width="27" height="27" fill="white" transform="translate(0.818115)"/>
</clipPath>
</defs>
</svg>
