<svg width="41" height="40" viewBox="0 0 41 40" fill="none" xmlns="http://www.w3.org/2000/svg">
<g clip-path="url(#clip0_794_105)">
<path d="M33.5555 1.99558H30.7819C29.5231 1.99707 28.5031 3.01711 28.5016 4.27584V6.70941L22.1422 0.662069C21.2266 -0.22069 19.7767 -0.22069 18.8611 0.662069L2.35264 16.3606C1.60419 17.0717 1.36791 18.1688 1.75726 19.1249C2.10761 20.0545 2.99881 20.6684 3.9922 20.6644H4.4989V37.6663C4.5114 38.9656 5.57324 40.0096 6.87253 40H34.129C35.4283 40.0096 36.4902 38.9656 36.5027 37.6663V20.6644H37.0094C38.0028 20.6684 38.894 20.0545 39.2443 19.1249C39.6337 18.1687 39.3974 17.0717 38.6489 16.3606L35.836 13.685V4.27584C35.8343 3.01711 34.8143 1.99707 33.5555 1.99558ZM29.8351 4.27584C29.8358 3.75328 30.2593 3.3298 30.7819 3.32909H33.5555C34.0781 3.3298 34.5016 3.75328 34.5023 4.27584V12.4168L29.8351 7.9776V4.27584ZM38.0054 18.6309C37.8522 19.0494 37.455 19.3286 37.0093 19.3309H35.8358C35.4675 19.3309 35.1691 19.6295 35.1691 19.9977V37.6663C35.157 38.2293 34.692 38.6765 34.129 38.6664H6.87246C6.30942 38.6765 5.84437 38.2293 5.83234 37.6663V19.9977C5.83234 19.6294 5.53379 19.3309 5.16562 19.3309H3.99212C3.54645 19.3286 3.14921 19.0494 2.99599 18.6309C2.80746 18.1812 2.91708 17.6618 3.27134 17.3267L19.7819 1.62288C20.1808 1.22877 20.8225 1.22877 21.2214 1.62288L37.7306 17.3247C38.0854 17.6604 38.1948 18.1807 38.0054 18.6309Z" fill="white"/>
<path fill-rule="evenodd" clip-rule="evenodd" d="M9.33368 24.7083C9.33368 30.6038 14.1308 35.4007 20.0263 35.4007C25.9218 35.4007 30.7188 30.6038 30.7188 24.7083C30.7188 24.3564 30.7022 24.0084 30.6693 23.6653C30.6303 23.2648 30.2756 22.9731 29.8732 23.0101C29.4727 23.0489 29.1792 23.4047 29.218 23.8062C29.2461 24.1026 29.2607 24.4039 29.2607 24.7083C29.2607 29.7998 25.1179 33.9426 20.0263 33.9426C14.9346 33.9426 10.7918 29.7998 10.7918 24.7083C10.7918 19.6166 14.9346 15.4737 20.0263 15.4737C21.7964 15.4737 23.5188 15.9781 25.0061 16.9337C25.3453 17.1514 25.7955 17.0533 26.014 16.7141C26.2319 16.3749 26.1327 15.9238 25.7944 15.706C24.0709 14.5998 22.0764 14.0156 20.0263 14.0156C14.1308 14.0156 9.33368 18.8128 9.33368 24.7083ZM20.7262 26.9242C20.868 27.0669 21.0547 27.138 21.2413 27.138C21.428 27.138 21.6145 27.0669 21.7574 26.9251L32.4501 16.2324C32.7349 15.9477 32.7349 15.486 32.4501 15.2012C32.1653 14.9164 31.7036 14.9164 31.4186 15.2012L21.2423 25.3777L17.3832 21.5185C17.0984 21.2337 16.6367 21.2337 16.3519 21.5185C16.0672 21.8033 16.0672 22.265 16.3519 22.55L20.7262 26.9242Z" fill="white"/>
</g>
<defs>
<clipPath id="clip0_794_105">
<rect width="40" height="40" fill="white" transform="translate(0.500732)"/>
</clipPath>
</defs>
</svg>