<svg width="25" height="24" viewBox="0 0 25 24" fill="none" xmlns="http://www.w3.org/2000/svg">
<path d="M17.6685 3.50005C17.6685 3.36745 17.6158 3.24027 17.522 3.1465C17.4282 3.05273 17.3011 3.00005 17.1685 3.00005H14.6685C13.4096 2.93734 12.1771 3.37544 11.2402 4.21863C10.3033 5.06182 9.73824 6.24155 9.66846 7.50005V10.2001H7.16846C7.03585 10.2001 6.90867 10.2527 6.8149 10.3465C6.72114 10.4403 6.66846 10.5674 6.66846 10.7001V13.3001C6.66846 13.4327 6.72114 13.5598 6.8149 13.6536C6.90867 13.7474 7.03585 13.8001 7.16846 13.8001H9.66846V20.5001C9.66846 20.6327 9.72114 20.7598 9.8149 20.8536C9.90867 20.9474 10.0358 21.0001 10.1685 21.0001H13.1685C13.3011 21.0001 13.4282 20.9474 13.522 20.8536C13.6158 20.7598 13.6685 20.6327 13.6685 20.5001V13.8001H16.2885C16.3996 13.8017 16.5082 13.7661 16.5969 13.6991C16.6857 13.6321 16.7496 13.5374 16.7785 13.4301L17.4985 10.8301C17.5184 10.7562 17.521 10.6787 17.5063 10.6036C17.4915 10.5286 17.4597 10.4579 17.4134 10.397C17.367 10.3362 17.3073 10.2868 17.2388 10.2526C17.1704 10.2185 17.095 10.2005 17.0185 10.2001H13.6685V7.50005C13.6933 7.25253 13.8096 7.02317 13.9945 6.85675C14.1794 6.69033 14.4197 6.59881 14.6685 6.60005H17.1685C17.3011 6.60005 17.4282 6.54737 17.522 6.45361C17.6158 6.35984 17.6685 6.23266 17.6685 6.10005V3.50005Z" fill="white"/>
</svg>
