<svg width="41" height="40" viewBox="0 0 41 40" fill="none" xmlns="http://www.w3.org/2000/svg">
<g clip-path="url(#clip0_794_93)">
<path d="M33.5555 1.99558H30.7819C29.5231 1.99707 28.5031 3.01711 28.5016 4.27584V6.70941L22.1422 0.662069C21.2266 -0.22069 19.7767 -0.22069 18.8611 0.662069L2.35264 16.3606C1.60419 17.0717 1.36791 18.1688 1.75726 19.1249C2.10761 20.0545 2.99881 20.6684 3.9922 20.6644H4.4989V37.6663C4.5114 38.9656 5.57324 40.0096 6.87253 40H34.129C35.4283 40.0096 36.4902 38.9656 36.5027 37.6663V20.6644H37.0094C38.0028 20.6684 38.894 20.0545 39.2443 19.1249C39.6337 18.1687 39.3974 17.0717 38.6489 16.3606L35.836 13.685V4.27584C35.8343 3.01711 34.8143 1.99707 33.5555 1.99558ZM29.8351 4.27584C29.8358 3.75328 30.2593 3.3298 30.7819 3.32909H33.5555C34.0781 3.3298 34.5016 3.75328 34.5023 4.27584V12.4168L29.8351 7.9776V4.27584ZM38.0054 18.6309C37.8522 19.0494 37.455 19.3286 37.0093 19.3309H35.8358C35.4675 19.3309 35.1691 19.6295 35.1691 19.9977V37.6663C35.157 38.2293 34.692 38.6765 34.129 38.6664H6.87246C6.30942 38.6765 5.84437 38.2293 5.83234 37.6663V19.9977C5.83234 19.6294 5.53379 19.3309 5.16562 19.3309H3.99212C3.54645 19.3286 3.14921 19.0494 2.99599 18.6309C2.80746 18.1812 2.91708 17.6618 3.27134 17.3267L19.7819 1.62288C20.1808 1.22877 20.8225 1.22877 21.2214 1.62288L37.7306 17.3247C38.0854 17.6604 38.1948 18.1807 38.0054 18.6309Z" fill="#025595"/>
<path d="M18.778 13.9004C19.9055 13.9004 20.8229 14.8169 20.8229 15.9443V18.957C21.0875 18.8315 21.3835 18.7607 21.695 18.7607C22.5415 18.7609 23.2676 19.2787 23.5778 20.0127C23.881 19.8349 24.2347 19.7324 24.611 19.7324C25.4576 19.7325 26.1846 20.2504 26.4948 20.9844C26.7978 20.8068 27.1511 20.7041 27.527 20.7041C28.6545 20.7041 29.571 21.6216 29.571 22.749V31.0117C29.5708 34.5507 26.692 37.4295 23.153 37.4297C21.2434 37.4297 19.4396 36.7328 18.0358 35.459L17.7604 35.1973L11.4753 28.9111C11.1057 28.5415 10.902 28.0505 10.902 27.5273C10.9021 26.4431 11.7782 25.5656 12.8581 25.5654C13.3236 25.5654 13.7903 25.6746 14.2067 25.8828L16.7341 27.1465V15.9443C16.7341 14.817 17.6507 13.9006 18.778 13.9004ZM18.778 15.0723C18.2969 15.0724 17.9059 15.464 17.9059 15.9443V28.0957C17.9058 28.2984 17.8007 28.4872 17.6286 28.5938L17.6276 28.5928C17.456 28.6995 17.2403 28.709 17.0593 28.6191H17.0583L13.6823 26.9316C13.4269 26.8045 13.1427 26.7373 12.8581 26.7373C12.4255 26.7374 12.074 27.0889 12.0739 27.5215C12.0739 27.7373 12.1554 27.9349 12.3034 28.082H12.3044L18.5905 34.3672L18.8239 34.5898C20.0114 35.6683 21.5358 36.2578 23.152 36.2578C26.0449 36.2576 28.399 33.9046 28.3991 31.0117V22.749C28.3991 22.2686 28.0083 21.877 27.527 21.877C27.0458 21.877 26.655 22.2686 26.655 22.749V25.1787C26.655 25.5022 26.3925 25.7646 26.069 25.7646C25.7455 25.7646 25.4831 25.5022 25.4831 25.1787V21.7764C25.4829 21.2961 25.0921 20.9044 24.611 20.9043C24.1298 20.9043 23.7391 21.296 23.739 21.7764V25.1787C23.739 25.5021 23.4764 25.7645 23.153 25.7646C22.8295 25.7646 22.5671 25.5022 22.5671 25.1787V20.8047C22.5671 20.3244 22.1761 19.9328 21.695 19.9326C21.2137 19.9326 20.8229 20.3242 20.8229 20.8047V25.1787C20.8229 25.5022 20.5595 25.7646 20.236 25.7646C19.9127 25.7644 19.6501 25.5021 19.6501 25.1787V15.9443C19.6501 15.4639 19.2593 15.0723 18.778 15.0723Z" fill="#025595" stroke="#025595" stroke-width="0.2"/>
</g>
<defs>
<clipPath id="clip0_794_93">
<rect width="40" height="40" fill="white" transform="translate(0.500732)"/>
</clipPath>
</defs>
</svg>