<svg width="25" height="24" viewBox="0 0 25 24" fill="none" xmlns="http://www.w3.org/2000/svg">
<path d="M15.8185 8.40006C15.052 8.39743 14.2926 8.54595 13.5836 8.83714C12.8746 9.12832 12.23 9.55644 11.6866 10.097C11.1433 10.6376 10.7119 11.28 10.417 11.9875C10.1222 12.6949 9.96979 13.4536 9.96848 14.2201V20.1001C9.96848 20.3388 10.0633 20.5677 10.2321 20.7365C10.4009 20.9052 10.6298 21.0001 10.8685 21.0001H12.9685C13.2072 21.0001 13.4361 20.9052 13.6049 20.7365C13.7737 20.5677 13.8685 20.3388 13.8685 20.1001V14.2201C13.8683 13.9475 13.9255 13.6779 14.0365 13.4289C14.1475 13.1799 14.3097 12.9571 14.5125 12.775C14.7154 12.5929 14.9543 12.4556 15.2138 12.372C15.4733 12.2885 15.7475 12.2606 16.0185 12.2901C16.5045 12.3513 16.9511 12.5887 17.2737 12.9574C17.5963 13.326 17.7723 13.8002 17.7685 14.2901V20.1001C17.7685 20.3388 17.8633 20.5677 18.0321 20.7365C18.2009 20.9052 18.4298 21.0001 18.6685 21.0001H20.7685C21.0072 21.0001 21.2361 20.9052 21.4049 20.7365C21.5737 20.5677 21.6685 20.3388 21.6685 20.1001V14.2201C21.6672 13.4536 21.5147 12.6949 21.2199 11.9875C20.9251 11.28 20.4937 10.6376 19.9503 10.097C19.4069 9.55644 18.7623 9.12832 18.0534 8.83714C17.3444 8.54595 16.5849 8.39743 15.8185 8.40006Z" fill="white"/>
<path d="M7.26846 9.30005H4.56846C4.0714 9.30005 3.66846 9.70299 3.66846 10.2V20.1C3.66846 20.5971 4.0714 21 4.56846 21H7.26846C7.76551 21 8.16846 20.5971 8.16846 20.1V10.2C8.16846 9.70299 7.76551 9.30005 7.26846 9.30005Z" fill="white"/>
<path d="M5.91846 7.5C7.1611 7.5 8.16846 6.49264 8.16846 5.25C8.16846 4.00736 7.1611 3 5.91846 3C4.67582 3 3.66846 4.00736 3.66846 5.25C3.66846 6.49264 4.67582 7.5 5.91846 7.5Z" fill="white"/>
</svg>
