<svg width="40" height="40" viewBox="0 0 40 40" fill="none" xmlns="http://www.w3.org/2000/svg">
<g clip-path="url(#clip0_794_78)">
<path d="M33.0555 1.99558H30.2819C29.0231 1.99707 28.0031 3.01711 28.0016 4.27584V6.70941L21.6422 0.662069C20.7266 -0.22069 19.2767 -0.22069 18.3611 0.662069L1.85264 16.3606C1.10419 17.0717 0.867915 18.1688 1.25726 19.1249C1.60761 20.0545 2.49881 20.6684 3.4922 20.6644H3.9989V37.6663C4.0114 38.9656 5.07324 40.0096 6.37253 40H33.629C34.9283 40.0096 35.9902 38.9656 36.0027 37.6663V20.6644H36.5094C37.5028 20.6684 38.394 20.0545 38.7443 19.1249C39.1337 18.1687 38.8974 17.0717 38.1489 16.3606L35.336 13.685V4.27584C35.3343 3.01711 34.3143 1.99707 33.0555 1.99558ZM29.3351 4.27584C29.3358 3.75328 29.7593 3.3298 30.2819 3.32909H33.0555C33.5781 3.3298 34.0016 3.75328 34.0023 4.27584V12.4168L29.3351 7.9776V4.27584ZM37.5054 18.6309C37.3522 19.0494 36.955 19.3286 36.5093 19.3309H35.3358C34.9675 19.3309 34.6691 19.6295 34.6691 19.9977V37.6663C34.657 38.2293 34.192 38.6765 33.629 38.6664H6.37246C5.80942 38.6765 5.34437 38.2293 5.33234 37.6663V19.9977C5.33234 19.6294 5.03379 19.3309 4.66562 19.3309H3.49212C3.04645 19.3286 2.64921 19.0494 2.49599 18.6309C2.30746 18.1812 2.41708 17.6618 2.77134 17.3267L19.2819 1.62288C19.6808 1.22877 20.3225 1.22877 20.7214 1.62288L37.2306 17.3247C37.5854 17.6604 37.6948 18.1807 37.5054 18.6309Z" fill="white"/>
<path d="M9.99952 23.9982C9.99679 27.6801 12.0193 31.0653 15.2629 32.8078C18.5064 34.5502 22.4455 34.3676 25.514 32.3325L29.9238 36.743C30.4282 37.2473 31.1633 37.4442 31.8522 37.2595C32.5411 37.0747 33.0791 36.5366 33.2637 35.8476C33.4482 35.1587 33.2512 34.4237 32.7468 33.9194L28.3349 29.5115C30.7021 25.943 30.5345 21.2633 27.9183 17.8732C25.3021 14.483 20.8178 13.1346 16.7657 14.5196C12.7136 15.9047 9.99312 19.7159 9.99952 23.9982ZM31.8074 34.8661C31.9335 34.9886 32.0047 35.1569 32.0047 35.3327C32.0047 35.5085 31.9335 35.6769 31.8074 35.7994C31.5476 36.0567 31.1291 36.0567 30.8694 35.7994L26.5809 31.511C26.9137 31.2195 27.2268 30.9064 27.5183 30.5735L31.8074 34.8661ZM28.6684 23.9982C28.6684 28.7852 24.7877 32.6658 20.0008 32.6658C15.2138 32.6658 11.333 28.7852 11.333 23.9982C11.333 19.2111 15.2137 15.3305 20.0007 15.3305C24.7854 15.336 28.6628 19.2134 28.6684 23.9982Z" fill="white"/>
<path fill-rule="evenodd" clip-rule="evenodd" d="M17.0211 17.2967C14.3755 18.4769 12.6702 21.1012 12.6666 23.9981C12.6666 24.3664 12.9651 24.6648 13.3333 24.6648C13.7015 24.6648 14 24.3663 14 23.9981C14.0035 21.6274 15.3994 19.48 17.5644 18.5141C17.7866 18.4201 17.9406 18.2133 17.9672 17.9735C17.9937 17.7337 17.8887 17.4982 17.6924 17.3579C17.4962 17.2175 17.2394 17.1941 17.0211 17.2967Z" fill="white"/>
<path d="M20.0007 17.9975C20.3689 17.9975 20.6674 17.699 20.6674 17.3308C20.6674 16.9626 20.3689 16.6641 20.0007 16.6641C19.6325 16.6641 19.334 16.9626 19.334 17.3308C19.334 17.699 19.6325 17.9975 20.0007 17.9975Z" fill="white"/>
</g>
<defs>
<clipPath id="clip0_794_78">
<rect width="40" height="40" fill="white" transform="translate(0.000732422)"/>
</clipPath>
</defs>
</svg>