<svg width="28" height="27" viewBox="0 0 28 27" fill="none" xmlns="http://www.w3.org/2000/svg">
<g clip-path="url(#clip0_794_148)">
<path d="M26.4682 14.3999H26.0182V4.9499C26.0182 2.69988 24.2182 0.899902 21.9682 0.899902C19.9764 0.899902 18.5439 2.37678 18.3836 4.54074C17.338 4.73838 16.5682 5.63898 16.5682 6.74989C16.5682 7.01989 16.7482 7.19987 17.0182 7.19987H20.6182C20.8882 7.19987 21.0682 7.01989 21.0682 6.74989C21.0682 5.65127 20.3154 4.75816 19.2875 4.54733C19.422 3.11738 20.2808 1.79987 21.9682 1.79987C23.7232 1.79987 25.1182 3.19485 25.1182 4.94985V14.3999H11.5747C11.3711 13.362 10.4737 12.5999 9.36821 12.5999C8.91823 12.0599 8.28821 11.6999 7.56823 11.6999C6.71325 11.6999 5.94823 12.1949 5.58821 12.9149C5.22819 12.7349 4.82319 12.5999 4.41819 12.5999C3.31272 12.5999 2.41529 13.362 2.21173 14.3999H2.16818C1.40316 14.3999 0.818176 14.9848 0.818176 15.7499C0.818176 16.5149 1.40316 17.0999 2.16818 17.0999H2.70897L3.92318 21.9149C4.28319 23.3099 5.54318 24.2999 6.98319 24.2999H7.34321L6.75823 25.4699C6.62323 25.6949 6.71325 25.9649 6.93821 26.0549C6.98319 26.0999 7.07321 26.0999 7.11819 26.0999C7.29818 26.0999 7.43318 26.0099 7.52319 25.8749L8.31068 24.2999H20.7982L21.5632 25.8299C21.6532 26.0099 21.7882 26.0999 21.9682 26.0999C22.0582 26.0999 22.1032 26.0999 22.1482 26.0099C22.3282 25.9198 22.4182 25.6498 22.3282 25.4249L21.7645 24.2975C23.1577 24.248 24.3625 23.2749 24.7132 21.9599L25.9387 17.0999H26.4682C27.2332 17.0999 27.8182 16.5149 27.8182 15.7499C27.8182 14.9849 27.2332 14.3999 26.4682 14.3999ZM20.1232 6.2999H17.5582C17.7382 5.7599 18.2782 5.39989 18.8632 5.39989C19.4482 5.39989 19.9432 5.7599 20.1232 6.2999ZM4.41819 13.4999C4.82319 13.4999 5.18321 13.6799 5.49819 13.9949C5.58821 14.1299 5.76819 14.1749 5.94818 14.1299C6.12816 14.0849 6.21818 13.9499 6.26316 13.7699C6.39816 13.0949 6.93816 12.5999 7.61316 12.5999C8.10818 12.5999 8.55816 12.8249 8.78318 13.2749C8.87319 13.4549 9.09816 13.5449 9.27819 13.4999C9.32318 13.4999 9.36821 13.4999 9.41319 13.4999C9.99818 13.4999 10.4932 13.8599 10.6732 14.3999H3.15816C3.33819 13.8599 3.83316 13.4999 4.41819 13.4999ZM23.9032 21.6899C23.6332 22.6799 22.7332 23.3999 21.6982 23.3999H7.02818C5.99316 23.3999 5.09319 22.6799 4.82319 21.6899L3.65318 17.0999H24.9832L23.9032 21.6899ZM26.4682 16.1999H25.5682H3.06819H2.16818C1.89818 16.1999 1.71819 16.0199 1.71819 15.7499C1.71819 15.4799 1.89818 15.2999 2.16818 15.2999H2.61816H11.1681H26.4682C26.7382 15.2999 26.9182 15.4799 26.9182 15.7499C26.9182 16.0199 26.7382 16.1999 26.4682 16.1999Z" fill="#222222"/>
<path d="M17.0182 9.22484C17.2882 9.22484 17.4681 9.04485 17.4681 8.77485V8.54984C17.4681 8.27984 17.2882 8.09985 17.0182 8.09985C16.7482 8.09985 16.5682 8.27984 16.5682 8.54984V8.77485C16.5682 9.04485 16.7482 9.22484 17.0182 9.22484Z" fill="#222222"/>
<path d="M17.0182 11.2949C17.2882 11.2949 17.4681 11.0699 17.4681 10.8449V10.3499C17.4681 10.0799 17.2882 9.8999 17.0182 9.8999C16.7482 9.8999 16.5682 10.0799 16.5682 10.3499V10.8449C16.5682 11.1149 16.7482 11.2949 17.0182 11.2949Z" fill="#222222"/>
<path d="M17.0182 13.0498C17.2882 13.0498 17.4681 12.8698 17.4681 12.5998V12.3748C17.4681 12.1048 17.2882 11.9248 17.0182 11.9248C16.7482 11.9248 16.5682 12.1048 16.5682 12.3748V12.5998C16.5682 12.8698 16.7482 13.0498 17.0182 13.0498Z" fill="#222222"/>
<path d="M18.8181 9.22484C19.0881 9.22484 19.2681 9.04485 19.2681 8.77485V8.54984C19.2681 8.27984 19.0881 8.09985 18.8181 8.09985C18.5481 8.09985 18.3682 8.27984 18.3682 8.54984V8.77485C18.3682 9.04485 18.5481 9.22484 18.8181 9.22484Z" fill="#222222"/>
<path d="M18.3682 10.8449C18.3682 11.1149 18.5481 11.2949 18.8181 11.2949C19.0881 11.2949 19.2681 11.0699 19.2681 10.8449V10.3499C19.2681 10.0799 19.0881 9.8999 18.8181 9.8999C18.5481 9.8999 18.3682 10.0799 18.3682 10.3499V10.8449Z" fill="#222222"/>
<path d="M18.3682 12.5998C18.3682 12.8698 18.5481 13.0498 18.8181 13.0498C19.0881 13.0498 19.2681 12.8698 19.2681 12.5998V12.3748C19.2681 12.1048 19.0881 11.9248 18.8181 11.9248C18.5481 11.9248 18.3682 12.1048 18.3682 12.3748V12.5998Z" fill="#222222"/>
<path d="M20.6182 9.22484C20.8882 9.22484 21.0682 9.04485 21.0682 8.77485V8.54984C21.0682 8.27984 20.8882 8.09985 20.6182 8.09985C20.3482 8.09985 20.1682 8.27984 20.1682 8.54984V8.77485C20.1682 9.04485 20.3482 9.22484 20.6182 9.22484Z" fill="#222222"/>
<path d="M20.1682 10.8449C20.1682 11.1149 20.3481 11.2949 20.6181 11.2949C20.8881 11.2949 21.0682 11.0699 21.0682 10.8449V10.3499C21.0682 10.0799 20.8882 9.8999 20.6182 9.8999C20.3482 9.8999 20.1682 10.0799 20.1682 10.3499V10.8449H20.1682Z" fill="#222222"/>
<path d="M20.1682 12.5998C20.1682 12.8698 20.3481 13.0498 20.6181 13.0498C20.8881 13.0498 21.0681 12.8698 21.0681 12.5998V12.3748C21.0681 12.1048 20.8881 11.9248 20.6181 11.9248C20.3481 11.9248 20.1682 12.1048 20.1682 12.3748V12.5998Z" fill="#222222"/>
</g>
<defs>
<clipPath id="clip0_794_148">
<rect width="27" height="27" fill="white" transform="translate(0.818176)"/>
</clipPath>
</defs>
</svg>
