<svg width="28" height="27" viewBox="0 0 28 27" fill="none" xmlns="http://www.w3.org/2000/svg">
<g clip-path="url(#clip0_794_138)">
<path d="M26.6932 13.7813V11.5313C26.6932 9.82126 25.5907 8.7188 23.8807 8.7188H10.9432C9.23316 8.7188 8.13069 9.82132 8.13069 11.5313V13.7637L2.65755 13.7757H1.94316V4.23564C1.94316 3.95441 1.74066 3.70128 1.46502 3.66189C1.11628 3.61126 0.818176 3.88126 0.818176 4.21876V22.7644C0.818176 23.0456 1.02068 23.2987 1.29632 23.3381C1.64505 23.3888 1.94321 23.1188 1.94321 22.7813V19.4063H26.6932V22.7644C26.6932 23.0456 26.8957 23.2987 27.1713 23.3381C27.5201 23.3888 27.8182 23.1188 27.8182 22.7813V14.9063C27.8182 14.1413 27.4582 13.7869 26.6932 13.7813ZM9.25568 11.5313C9.25568 10.0632 10.3132 9.84378 10.9432 9.84378H23.8807C24.5107 9.84378 25.5682 10.0632 25.5682 11.5313V13.7813H9.25568V11.5313ZM26.6931 18.2813H1.94316V14.9063H26.6931V18.2813Z" fill="#222222"/>
<path d="M5.06329 7.51465C3.33767 7.51465 1.93878 8.91353 1.93878 10.6392C1.93878 12.3648 3.33767 13.7637 5.06329 13.7637C6.78892 13.7637 8.18781 12.3648 8.18781 10.6392C8.18781 8.91353 6.78892 7.51465 5.06329 7.51465ZM5.06329 12.7617C3.89106 12.7617 2.94073 11.8114 2.94073 10.6392C2.94073 9.46693 3.89106 8.5166 5.06329 8.5166C6.23553 8.5166 7.18585 9.46693 7.18585 10.6392C7.18585 11.8114 6.23558 12.7617 5.06329 12.7617Z" fill="#222222"/>
</g>
<defs>
<clipPath id="clip0_794_138">
<rect width="27" height="27" fill="white" transform="translate(0.818176)"/>
</clipPath>
</defs>
</svg>
