<svg width="25" height="24" viewBox="0 0 25 24" fill="none" xmlns="http://www.w3.org/2000/svg">
<path d="M8.74847 20C10.2272 20.0495 11.7008 19.8021 13.0822 19.2723C14.4636 18.7426 15.7249 17.9413 16.7914 16.9159C17.8579 15.8904 18.708 14.6615 19.2914 13.3019C19.8749 11.9423 20.1799 10.4795 20.1885 9.00004C20.8661 8.16146 21.3693 7.19587 21.6685 6.16004C21.6908 6.07821 21.689 5.99166 21.6633 5.91082C21.6376 5.82998 21.589 5.7583 21.5235 5.70441C21.458 5.65052 21.3783 5.61672 21.294 5.60707C21.2097 5.59743 21.1245 5.61235 21.0485 5.65004C20.6939 5.8207 20.2948 5.87582 19.9073 5.80765C19.5198 5.73948 19.1635 5.55145 18.8885 5.27004C18.5374 4.88562 18.1128 4.57557 17.6397 4.35827C17.1666 4.14097 16.6548 4.02083 16.1344 4.00498C15.6141 3.98913 15.0958 4.07788 14.6104 4.26598C14.125 4.45408 13.6823 4.73771 13.3085 5.10004C12.7967 5.5957 12.4218 6.21533 12.2203 6.89872C12.0188 7.5821 11.9975 8.306 12.1585 9.00004C8.80847 9.20004 6.50847 7.61004 4.66847 5.43004C4.61319 5.36745 4.54088 5.3223 4.46037 5.30011C4.37986 5.27793 4.29463 5.27967 4.21509 5.30512C4.13555 5.33057 4.06515 5.37864 4.01247 5.44344C3.9598 5.50824 3.92713 5.58698 3.91847 5.67004C3.56794 7.61447 3.8208 9.61959 4.64309 11.4161C5.46537 13.2126 6.81771 14.7145 8.51847 15.72C7.3781 17.0279 5.77668 17.8447 4.04847 18C3.95588 18.0154 3.87041 18.0593 3.80402 18.1257C3.73763 18.192 3.69364 18.2774 3.67821 18.37C3.66278 18.4626 3.67668 18.5577 3.71797 18.6419C3.75926 18.7262 3.82586 18.7955 3.90847 18.84C5.41199 19.5914 7.0677 19.9882 8.74847 20Z" fill="white"/>
</svg>
